<svg xmlns="http://www.w3.org/2000/svg" viewBox="0 0 256 256"><circle cx="128" cy="128" r="128" fill="#1e3a5f"/><path d="M16 216 L16 100 Q16 48 56 48 Q96 48 96 100 L96 216Z" fill="white"/><path d="M160 216 L160 100 Q160 48 200 48 Q240 48 240 100 L240 216Z" fill="white"/><rect x="28" y="108" width="56" height="9" rx="4" fill="#1e3a5f"/><rect x="28" y="128" width="56" height="9" rx="4" fill="#1e3a5f"/><rect x="28" y="148" width="56" height="9" rx="4" fill="#1e3a5f"/><rect x="28" y="168" width="40" height="9" rx="4" fill="#1e3a5f"/><rect x="172" y="108" width="56" height="9" rx="4" fill="#1e3a5f"/><rect x="172" y="128" width="56" height="9" rx="4" fill="#1e3a5f"/><rect x="172" y="148" width="56" height="9" rx="4" fill="#1e3a5f"/><rect x="172" y="168" width="40" height="9" rx="4" fill="#1e3a5f"/></svg>