<svg xmlns="http://www.w3.org/2000/svg" viewBox="0 0 256 256"><circle cx="128" cy="128" r="128" fill="#1e3a5f"/><path d="M40 220 L40 152 L68 152 L68 80 Q68 56 52 56 Q36 56 36 80 L36 152 L36 220Z" fill="white"/><path d="M40 220 L96 220 L96 152 L68 152 Z" fill="white"/><path d="M216 220 L216 152 L188 152 L188 80 Q188 56 204 56 Q220 56 220 80 L220 152 L220 220Z" fill="white"/><path d="M216 220 L160 220 L160 152 L188 152 Z" fill="white"/><rect x="114" y="28" width="28" height="180" rx="8" fill="white"/><rect x="78" y="92" width="100" height="28" rx="8" fill="white"/></svg>